<?xml version="1.0" encoding="UTF-8" standalone="no"?>
<svg
   width="256"
   height="256"
   viewBox="0 0 256 256"
   fill="none"
   version="1.1"
   id="svg3"
   sodipodi:docname="icon-cat.svg"
   inkscape:version="1.4 (86a8ad7, 2024-10-11)"
   inkscape:export-filename="icon-cat-256.png"
   inkscape:export-xdpi="96"
   inkscape:export-ydpi="96"
   xmlns:inkscape="http://www.inkscape.org/namespaces/inkscape"
   xmlns:sodipodi="http://sodipodi.sourceforge.net/DTD/sodipodi-0.dtd"
   xmlns="http://www.w3.org/2000/svg"
   xmlns:svg="http://www.w3.org/2000/svg">
  <sodipodi:namedview
     id="namedview3"
     pagecolor="#ffffff"
     bordercolor="#000000"
     borderopacity="0.25"
     inkscape:showpageshadow="2"
     inkscape:pageopacity="0.0"
     inkscape:pagecheckerboard="0"
     inkscape:deskcolor="#d1d1d1"
     inkscape:zoom="2.6448513"
     inkscape:cx="-50.475427"
     inkscape:cy="120.04455"
     inkscape:window-width="2560"
     inkscape:window-height="1369"
     inkscape:window-x="1072"
     inkscape:window-y="211"
     inkscape:window-maximized="1"
     inkscape:current-layer="svg3" />
  <path
     d="M 0,38.321868 V 217.15731 c 0,28.11535 25.497854,38.32236 42.638352,38.32236 H 255.83158 V 229.93252 H 42.808959 c -6.566351,-0.15465 -14.38333,-2.47936 -14.38333,-12.77521 0,-10.29586 7.816979,-12.62057 14.38333,-12.77358 H 255.83158 V 25.547967 C 255.83158,11.458259 243.08183,0 227.40503,0 H 42.638352 C 25.497854,0 0,10.20642 0,38.321868 Z"
     fill="#b48468"
     id="path1"
     style="stroke-width:1.73542" />
  <g
     clip-path="url(#clip0_41_594)"
     id="g3"
     transform="scale(1.8305457,1.6452308)">
    <path
       d="m 113.339,77.449 -5.855,-1.0549 c 0.07,-1.3027 0.063,-2.6196 0,-3.9365 l 5.947,-0.885 c 0.196,-0.0286 0.385,-0.0957 0.555,-0.1973 0.171,-0.1016 0.319,-0.2359 0.438,-0.395 0.118,-0.1592 0.204,-0.3401 0.252,-0.5325 0.049,-0.1924 0.058,-0.3924 0.029,-0.5886 -0.12,-0.8213 -0.892,-1.3877 -1.713,-1.2745 l -5.792,0.8638 c -0.637,-4.2339 -2.265,-8.4536 -4.729,-12.2556 0.743,-7.0943 2.166,-26.3239 -3.6039,-30.1967 -4.602,-3.0869 -15.5479,8.3687 -19.0738,12.4822 -0.8142,0.9488 -1.5576,1.8055 -2.2373,2.5843 C 75.0922,41.6874 72.5858,41.4821 70.0865,41.4821 67.5872,41.475 65.088,41.6874 62.6241,42.0627 61.9444,41.2839 61.201,40.4272 60.3868,39.4784 56.8609,35.3649 45.915,23.9093 41.32,26.9962 c -5.7702,3.8728 -4.3401,23.1024 -3.6037,30.1967 -2.4568,3.7949 -4.0994,8.0217 -4.7295,12.2556 l -5.7916,-0.8638 c -0.8213,-0.1132 -1.593,0.4461 -1.7204,1.2745 -0.1275,0.8213 0.446,1.593 1.2673,1.7134 l 5.9473,0.885 c -0.0637,1.3169 -0.0708,2.6338 0,3.9365 l -5.8482,1.0549 c -0.3726,0.0653 -0.7071,0.2682 -0.9372,0.5684 -0.2301,0.3003 -0.339,0.676 -0.3051,1.0528 0.0338,0.3767 0.2079,0.727 0.4879,0.9815 0.2799,0.2544 0.6452,0.3944 1.0235,0.3922 0.0849,0 0.177,-0.0071 0.269,-0.0212 l 5.6216,-1.0125 c 0.2337,1.4868 0.5735,2.9524 1.062,4.3755 l -4.5879,1.4515 c -0.3809,0.1229 -0.6979,0.3911 -0.8821,0.7464 -0.1843,0.3552 -0.2209,0.7689 -0.102,1.151 0.1213,0.382 0.3893,0.7002 0.7451,0.8847 0.3558,0.1846 0.7702,0.2203 1.1524,0.0995 l 4.8498,-1.5364 c 1.4019,2.7541 3.4551,5.2888 6.358,7.4553 4.2834,3.1932 9.6077,5.3597 15.1018,6.5353 2.0816,0.446 7.4766,1.486 13.1336,1.486 5.657,0 11.576,-1.04 13.6646,-1.486 5.4871,-1.1756 10.8184,-3.3421 15.1019,-6.5353 2.9029,-2.1665 4.9559,-4.7012 6.3579,-7.4553 l 4.843,1.5364 c 0.382,0.1208 0.796,0.0851 1.152,-0.0995 0.356,-0.1845 0.624,-0.5027 0.745,-0.8847 0.255,-0.793 -0.184,-1.6426 -0.977,-1.8974 l -4.588,-1.4585 c 0.489,-1.4161 0.836,-2.8817 1.062,-4.3756 l 5.629,1.0125 c 0.394,0.0683 0.799,-0.0212 1.128,-0.249 0.328,-0.2279 0.554,-0.5759 0.628,-0.9688 0.06,-0.3952 -0.035,-0.7983 -0.267,-1.1245 -0.231,-0.3262 -0.579,-0.55 -0.972,-0.6243 z"
       fill="#ffffff"
       id="path2" />
    <path
       d="m 57.7246,73.8452 c 0,3.2498 -2.3435,5.8765 -5.2251,5.8765 -2.8816,0 -5.2251,-2.6338 -5.2251,-5.8765 0,-3.2568 2.3435,-5.8835 5.2251,-5.8835 2.8816,-0.0071 5.2251,2.6267 5.2251,5.8835 z m 24.3131,0 c 0,3.2498 2.3365,5.8765 5.2251,5.8765 2.8817,0 5.2252,-2.6338 5.2252,-5.8765 0,-3.2568 -2.3435,-5.8835 -5.2252,-5.8835 -2.8816,-0.0071 -5.2251,2.6267 -5.2251,5.8835 z"
       fill="#b48468"
       id="path3" />
  </g>
  <defs
     id="defs3">
    <clipPath
       id="clip0_41_594">
      <rect
         width="89.607101"
         height="75.351402"
         fill="#ffffff"
         transform="translate(25.457,26.4749)"
         id="rect3"
         x="0"
         y="0" />
    </clipPath>
  </defs>
</svg>
